HIERARCHY
ROOT Hip
{
	OFFSET -0.061382 -0.166083 0.124973
	CHANNELS 6 Xposition Yposition Zposition Xrotation Yrotation Zrotation
	JOINT LowerSpine
	{
		OFFSET -0.020392 0.151678 0.260848
		CHANNELS 6 Xposition Yposition Zposition Xrotation Yrotation Zrotation
		JOINT MiddleSpine
		{
			OFFSET -0.018813 -0.013892 0.236262
			CHANNELS 3 Xrotation Yrotation Zrotation
			JOINT Chest
			{
				OFFSET -0.023181 0.055392 0.293193
				CHANNELS 3 Xrotation Yrotation Zrotation
				JOINT Neck
				{
					OFFSET -0.052399 0.004735 0.659299
					CHANNELS 6 Xposition Yposition Zposition Xrotation Yrotation Zrotation
					JOINT Head
					{
						OFFSET -0.029739 -0.105880 0.371045
						CHANNELS 3 Xrotation Yrotation Zrotation
						End Site
						{
							OFFSET -0.004253 -0.002220 0.053438
						}
					}
				}
				JOINT LClavicle
				{
					OFFSET 0.009049 -0.204271 0.638577
					CHANNELS 6 Xposition Yposition Zposition Xrotation Yrotation Zrotation
					JOINT LShoulder
					{
						OFFSET 0.342866 0.146253 0.120790
						CHANNELS 3 Xrotation Yrotation Zrotation
						JOINT LForearm
						{
							OFFSET 0.826135 0.005340 0.062810
							CHANNELS 3 Xrotation Yrotation Zrotation
							JOINT LHand
							{
								OFFSET 0.688815 0.002556 0.056815
								CHANNELS 3 Xrotation Yrotation Zrotation
								JOINT LFinger1
								{
									OFFSET 0.265068 -0.075270 0.043709
									CHANNELS 6 Xposition Yposition Zposition Xrotation Yrotation Zrotation
									JOINT LFinger11
									{
										OFFSET 0.101793 -0.017597 -0.016621
										CHANNELS 3 Xrotation Yrotation Zrotation
										JOINT LFinger12
										{
											OFFSET 0.069492 -0.012018 -0.011349
											CHANNELS 3 Xrotation Yrotation Zrotation
											End Site
											{
												OFFSET 0.051832 -0.008180 -0.011186
											}
										}
									}
								}
								JOINT LFinger2
								{
									OFFSET 0.268857 -0.007403 0.048435
									CHANNELS 6 Xposition Yposition Zposition Xrotation Yrotation Zrotation
									JOINT LFinger21
									{
										OFFSET 0.123470 0.000447 0.010169
										CHANNELS 3 Xrotation Yrotation Zrotation
										JOINT LFinger22
										{
											OFFSET 0.068437 0.000260 0.005656
											CHANNELS 3 Xrotation Yrotation Zrotation
											End Site
											{
												OFFSET 0.053650 -0.000150 0.000472
											}
										}
									}
								}
								JOINT LFinger3
								{
									OFFSET 0.255490 0.060161 0.039126
									CHANNELS 6 Xposition Yposition Zposition Xrotation Yrotation Zrotation
									JOINT LFinger31
									{
										OFFSET 0.112521 0.006850 0.003316
										CHANNELS 3 Xrotation Yrotation Zrotation
										JOINT LFinger32
										{
											OFFSET 0.064118 0.003916 0.001911
											CHANNELS 3 Xrotation Yrotation Zrotation
											End Site
											{
												OFFSET 0.053547 0.002469 -0.002274
											}
										}
									}
								}
								JOINT LFinger4
								{
									OFFSET 0.239918 0.104931 0.002066
									CHANNELS 6 Xposition Yposition Zposition Xrotation Yrotation Zrotation
									JOINT LFinger41
									{
										OFFSET 0.070097 0.019097 -0.008671
										CHANNELS 3 Xrotation Yrotation Zrotation
										JOINT LFinger42
										{
											OFFSET 0.051401 0.014012 -0.006343
											CHANNELS 3 Xrotation Yrotation Zrotation
											End Site
											{
												OFFSET 0.051470 0.011636 -0.009695
											}
										}
									}
								}
								JOINT LFinger0
								{
									OFFSET 0.058506 -0.041646 -0.037907
									CHANNELS 6 Xposition Yposition Zposition Xrotation Yrotation Zrotation
									JOINT LFinger01
									{
										OFFSET 0.105425 -0.077620 -0.026505
										CHANNELS 3 Xrotation Yrotation Zrotation
										JOINT LFinger02
										{
											OFFSET 0.069581 -0.048813 -0.019421
											CHANNELS 3 Xrotation Yrotation Zrotation
											End Site
											{
												OFFSET 0.043574 -0.029084 -0.011579
											}
										}
									}
								}
							}
						}
					}
				}
				JOINT RClavicle
				{
					OFFSET -0.110743 -0.203999 0.629054
					CHANNELS 6 Xposition Yposition Zposition Xrotation Yrotation Zrotation
					JOINT RShoulder
					{
						OFFSET -0.357043 0.147865 0.065168
						CHANNELS 3 Xrotation Yrotation Zrotation
						JOINT RForearm
						{
							OFFSET -0.825651 0.009085 -0.068498
							CHANNELS 3 Xrotation Yrotation Zrotation
							JOINT RHand
							{
								OFFSET -0.689122 0.005680 -0.052723
								CHANNELS 3 Xrotation Yrotation Zrotation
								JOINT RFinger1
								{
									OFFSET -0.268984 -0.074059 0.001258
									CHANNELS 6 Xposition Yposition Zposition Xrotation Yrotation Zrotation
									JOINT RFinger11
									{
										OFFSET -0.097966 -0.017144 -0.032501
										CHANNELS 3 Xrotation Yrotation Zrotation
										JOINT RFinger12
										{
											OFFSET -0.066879 -0.011709 -0.022196
											CHANNELS 3 Xrotation Yrotation Zrotation
											End Site
											{
												OFFSET -0.049450 -0.007950 -0.019237
											}
										}
									}
								}
								JOINT RFinger2
								{
									OFFSET -0.273164 -0.006177 0.005347
									CHANNELS 6 Xposition Yposition Zposition Xrotation Yrotation Zrotation
									JOINT RFinger21
									{
										OFFSET -0.123522 0.001007 -0.009463
										CHANNELS 3 Xrotation Yrotation Zrotation
										JOINT RFinger22
										{
											OFFSET -0.068470 0.000573 -0.005227
											CHANNELS 3 Xrotation Yrotation Zrotation
											End Site
											{
												OFFSET -0.053051 0.000092 -0.008010
											}
										}
									}
								}
								JOINT RFinger3
								{
									OFFSET -0.258189 0.061326 -0.001705
									CHANNELS 6 Xposition Yposition Zposition Xrotation Yrotation Zrotation
									JOINT RFinger31
									{
										OFFSET -0.111600 0.007359 -0.014500
										CHANNELS 3 Xrotation Yrotation Zrotation
										JOINT RFinger32
										{
											OFFSET -0.063599 0.004205 -0.008242
											CHANNELS 3 Xrotation Yrotation Zrotation
											End Site
											{
												OFFSET -0.052504 0.002710 -0.010705
											}
										}
									}
								}
								JOINT RFinger4
								{
									OFFSET -0.236756 0.106012 -0.035826
									CHANNELS 6 Xposition Yposition Zposition Xrotation Yrotation Zrotation
									JOINT RFinger41
									{
										OFFSET -0.067760 0.019409 -0.019630
										CHANNELS 3 Xrotation Yrotation Zrotation
										JOINT RFinger42
										{
											OFFSET -0.049690 0.014241 -0.014376
											CHANNELS 3 Xrotation Yrotation Zrotation
											End Site
											{
												OFFSET -0.049239 0.011864 -0.017701
											}
										}
									}
								}
								JOINT RFinger0
								{
									OFFSET -0.051970 -0.041393 -0.046686
									CHANNELS 6 Xposition Yposition Zposition Xrotation Yrotation Zrotation
									JOINT RFinger01
									{
										OFFSET -0.100262 -0.077157 -0.042862
										CHANNELS 3 Xrotation Yrotation Zrotation
										JOINT RFinger02
										{
											OFFSET -0.065859 -0.048506 -0.030184
											CHANNELS 3 Xrotation Yrotation Zrotation
											End Site
											{
												OFFSET -0.041328 -0.028891 -0.018328
											}
										}
									}
								}
							}
						}
					}
				}
			}
		}
	}
	JOINT RThigh
	{
		OFFSET -0.315571 0.024541 0.093037
		CHANNELS 6 Xposition Yposition Zposition Xrotation Yrotation Zrotation
		JOINT RShin
		{
			OFFSET 0.073668 0.014021 -1.207046
			CHANNELS 3 Xrotation Yrotation Zrotation
			JOINT RFoot
			{
				OFFSET 0.094113 0.013718 -1.183516
				CHANNELS 3 Xrotation Yrotation Zrotation
				JOINT RToe
				{
					OFFSET 0.009979 -0.271361 -0.133269
					CHANNELS 3 Xrotation Yrotation Zrotation
					End Site
					{
						OFFSET -0.000072 -0.053649 -0.000627
					}
				}
			}
		}
	}
	JOINT LThigh
	{
		OFFSET 0.297013 0.023152 0.141742
		CHANNELS 6 Xposition Yposition Zposition Xrotation Yrotation Zrotation
		JOINT LShin
		{
			OFFSET 0.118021 0.013920 -1.203529
			CHANNELS 3 Xrotation Yrotation Zrotation
			JOINT LFoot
			{
				OFFSET 0.094113 0.013718 -1.183517
				CHANNELS 3 Xrotation Yrotation Zrotation
				JOINT LToe
				{
					OFFSET 0.009979 -0.271364 -0.133272
					CHANNELS 3 Xrotation Yrotation Zrotation
					End Site
					{
						OFFSET -0.000072 -0.053649 -0.000627
					}
				}
			}
		}
	}
}
MOTION
Frames: 5
Frame Time: 0.041667
0.293570 -3.552242 2.993371 161.700863 -5.022195 -15.890365 -0.020392 0.151677 0.260848 0.000000 -0.000012 0.000005 -1.999044 5.454394 1.159445 -8.633742 17.555360 4.673099 -0.052399 0.004735 0.659298 -40.419386 -9.887779 -10.898618 -1.525858 -0.804669 -0.167344 0.009049 -0.204270 0.638577 13.720326 -18.792992 6.520968 -65.464385 -46.592514 -78.703833 -0.224193 -0.038372 2.830625 -57.241080 -84.710007 7.291933 0.265067 -0.075270 0.043709 0.000002 -0.000002 -0.000007 -0.000003 -0.000001 0.000002 -0.000008 0.000006 -0.000015 0.268857 -0.007403 0.048435 0.000000 -0.000008 -0.000003 0.000001 0.000005 0.000001 -0.000003 0.000006 0.000002 0.255489 0.060161 0.039126 0.000002 -0.000003 -0.000002 -0.000001 -0.000002 -0.000001 0.000002 -0.000006 -0.000004 0.239917 0.104931 0.002066 0.000011 -0.000002 0.000001 0.000003 -0.000003 0.000000 0.000004 -0.000007 -0.000005 0.058505 -0.041646 -0.037907 -0.000003 -0.000003 -0.000004 0.000006 0.000000 0.000003 0.000009 -0.000004 -0.000009 -0.110743 -0.203998 0.629055 -22.323785 -4.790920 0.079614 -40.805531 11.574343 78.311165 -0.036259 -0.005443 0.456302 10.840332 93.364321 -10.071786 -0.268984 -0.074059 0.001257 -0.000011 -0.000022 -0.000010 0.000008 0.000015 -0.000002 0.000005 -0.000016 -0.000001 -0.273163 -0.006177 0.005347 -0.000004 -0.000034 -0.000009 -0.000001 0.000008 0.000003 -0.000000 -0.000002 0.000001 -0.258189 0.061326 -0.001706 -0.000005 -0.000031 -0.000006 -0.000001 0.000003 0.000001 0.000002 -0.000006 0.000001 -0.236756 0.106012 -0.035826 0.000003 -0.000022 -0.000006 0.000006 0.000009 0.000008 -0.000003 -0.000014 0.000001 -0.051970 -0.041393 -0.046686 -0.000003 -0.000030 -0.000014 0.000003 -0.000005 -0.000005 -0.000006 -0.000002 0.000011 -0.315571 0.024541 0.093037 -2.360062 16.665825 -5.961396 9.362571 0.039530 0.742702 -3.266891 -3.539110 6.430961 -0.000023 -0.000008 0.000011 0.319239 -0.038528 0.242919 -139.886304 -1.242488 11.071085 134.942517 7.675011 3.447388 3.610285 -0.235563 0.821454 0.000004 0.000006 -0.000003 
0.293570 -3.552242 2.993371 161.700863 -5.022195 -15.890365 -0.020392 0.151677 0.260848 0.000000 -0.000012 0.000005 -1.999044 5.454394 1.159445 -8.633742 17.555360 4.673099 -0.052399 0.004735 0.659298 -40.419386 -9.887779 -10.898618 -1.525858 -0.804669 -0.167344 0.009049 -0.204270 0.638577 13.720326 -18.792992 6.520968 -65.464385 -46.592514 -78.703833 -0.224193 -0.038372 2.830625 -57.241080 -84.710007 7.291933 0.265067 -0.075270 0.043709 0.000002 -0.000002 -0.000007 -0.000003 -0.000001 0.000002 -0.000008 0.000006 -0.000015 0.268857 -0.007403 0.048435 0.000000 -0.000008 -0.000003 0.000001 0.000005 0.000001 -0.000003 0.000006 0.000002 0.255489 0.060161 0.039126 0.000002 -0.000003 -0.000002 -0.000001 -0.000002 -0.000001 0.000002 -0.000006 -0.000004 0.239917 0.104931 0.002066 0.000011 -0.000002 0.000001 0.000003 -0.000003 0.000000 0.000004 -0.000007 -0.000005 0.058505 -0.041646 -0.037907 -0.000003 -0.000003 -0.000004 0.000006 0.000000 0.000003 0.000009 -0.000004 -0.000009 -0.110743 -0.203998 0.629055 -22.323785 -4.790920 0.079614 -40.805531 11.574343 78.311165 -0.036259 -0.005443 0.456302 10.840332 93.364321 -10.071786 -0.268984 -0.074059 0.001257 -0.000011 -0.000022 -0.000010 0.000008 0.000015 -0.000002 0.000005 -0.000016 -0.000001 -0.273163 -0.006177 0.005347 -0.000004 -0.000034 -0.000009 -0.000001 0.000008 0.000003 -0.000000 -0.000002 0.000001 -0.258189 0.061326 -0.001706 -0.000005 -0.000031 -0.000006 -0.000001 0.000003 0.000001 0.000002 -0.000006 0.000001 -0.236756 0.106012 -0.035826 0.000003 -0.000022 -0.000006 0.000006 0.000009 0.000008 -0.000003 -0.000014 0.000001 -0.051970 -0.041393 -0.046686 -0.000003 -0.000030 -0.000014 0.000003 -0.000005 -0.000005 -0.000006 -0.000002 0.000011 -0.315571 0.024541 0.093037 -2.360062 16.665825 -5.961396 9.362571 0.039530 0.742702 -3.266891 -3.539110 6.430961 -0.000023 -0.000008 0.000011 0.319239 -0.038528 0.242919 -139.886304 -1.242488 11.071085 134.942517 7.675011 3.447388 3.610285 -0.235563 0.821454 0.000004 0.000006 -0.000003 
0.293768 -3.549739 2.992162 161.529247 -5.136715 -15.488098 -0.020392 0.151678 0.260848 0.000001 -0.000012 0.000004 -2.015761 5.516319 1.144128 -8.526857 17.801473 4.642557 -0.052399 0.004735 0.659298 -40.266994 -9.870418 -10.849408 -1.743402 -0.867069 -0.189779 0.009049 -0.204272 0.638577 13.613524 -18.541068 6.446881 -65.875016 -46.202251 -79.682237 -0.246715 -0.041709 3.105019 -60.312920 -84.875284 4.207817 0.265068 -0.075269 0.043709 0.000002 -0.000002 -0.000004 -0.000002 -0.000000 0.000005 -0.000006 0.000001 -0.000016 0.268858 -0.007403 0.048434 0.000000 -0.000007 0.000001 0.000002 0.000005 -0.000004 -0.000003 0.000006 -0.000001 0.255490 0.060161 0.039126 0.000002 -0.000002 0.000002 -0.000000 -0.000002 0.000002 0.000003 -0.000004 -0.000003 0.239918 0.104931 0.002066 0.000010 -0.000002 0.000003 0.000004 -0.000004 -0.000005 0.000003 -0.000007 -0.000005 0.058506 -0.041646 -0.037907 -0.000003 0.000000 0.000001 0.000011 0.000000 -0.000006 0.000011 -0.000004 -0.000008 -0.110743 -0.204000 0.629054 -22.362838 -4.779659 -0.045184 -40.615252 11.476362 78.087408 -0.047419 -0.006443 0.602853 10.548682 93.462792 -9.779488 -0.268984 -0.074058 0.001257 -0.000012 -0.000022 -0.000009 0.000008 0.000016 0.000005 0.000004 -0.000014 -0.000005 -0.273164 -0.006177 0.005347 -0.000004 -0.000034 -0.000011 -0.000001 0.000008 0.000005 -0.000001 -0.000003 -0.000001 -0.258189 0.061326 -0.001706 -0.000005 -0.000032 -0.000009 -0.000000 0.000004 0.000003 0.000002 -0.000007 -0.000001 -0.236756 0.106012 -0.035827 0.000002 -0.000025 -0.000006 0.000003 0.000009 0.000007 -0.000009 -0.000013 0.000005 -0.051970 -0.041393 -0.046686 -0.000005 -0.000027 -0.000018 0.000005 -0.000004 -0.000008 -0.000003 -0.000003 0.000014 -0.315571 0.024541 0.093037 -3.279311 16.590806 -6.043358 7.274530 0.020202 0.577781 -2.811051 -3.852673 7.186139 -0.000022 -0.000008 0.000012 0.319239 -0.038527 0.242919 -141.753418 -1.927454 11.048994 133.510541 7.591777 3.524589 2.770014 -0.562177 1.445409 0.000001 0.000006 -0.000000 
0.294126 -3.546822 2.990031 161.316173 -5.258215 -15.119918 -0.020392 0.151678 0.260848 0.000004 -0.000012 0.000002 -2.019470 5.583466 1.133302 -8.366875 18.064271 4.613534 -0.052399 0.004736 0.659299 -40.110378 -9.858280 -10.803026 -2.241894 -0.996435 -0.241028 0.009049 -0.204270 0.638577 13.515856 -18.327684 6.380837 -66.221204 -45.933330 -80.394229 -0.235204 -0.041965 2.964466 -58.752734 -84.794531 5.774153 0.265068 -0.075270 0.043709 0.000002 -0.000001 -0.000009 -0.000001 -0.000002 0.000003 -0.000005 0.000002 -0.000014 0.268858 -0.007403 0.048434 0.000002 -0.000008 -0.000005 0.000003 0.000005 -0.000003 -0.000003 0.000006 -0.000002 0.255489 0.060161 0.039126 0.000003 -0.000004 -0.000005 -0.000001 -0.000003 0.000002 0.000002 -0.000007 -0.000006 0.239918 0.104931 0.002066 0.000010 -0.000002 -0.000001 0.000003 -0.000002 0.000004 0.000005 -0.000006 -0.000006 0.058505 -0.041646 -0.037907 -0.000003 -0.000003 -0.000004 0.000016 0.000002 0.000002 0.000011 -0.000002 -0.000007 -0.110743 -0.203999 0.629054 -22.402512 -4.766396 -0.174935 -40.526945 11.404774 77.907897 -0.053714 -0.007225 0.687277 10.141002 93.610659 -9.370846 -0.268984 -0.074059 0.001257 -0.000011 -0.000022 -0.000009 0.000009 0.000017 0.000001 0.000004 -0.000018 -0.000000 -0.273163 -0.006177 0.005347 -0.000004 -0.000034 -0.000009 -0.000001 0.000009 0.000001 -0.000001 -0.000003 0.000000 -0.258189 0.061326 -0.001706 -0.000005 -0.000031 -0.000005 -0.000001 0.000004 -0.000003 0.000002 -0.000006 0.000002 -0.236756 0.106012 -0.035827 0.000003 -0.000023 -0.000008 0.000004 0.000009 0.000007 -0.000004 -0.000013 -0.000001 -0.051969 -0.041393 -0.046686 -0.000006 -0.000026 -0.000020 0.000009 -0.000003 -0.000009 -0.000007 -0.000001 0.000010 -0.315571 0.024541 0.093037 -4.918375 16.592348 -5.976011 6.576716 0.015084 0.522518 -3.278192 -3.820429 6.994011 -0.000021 -0.000008 0.000014 0.319239 -0.038527 0.242919 -144.642725 -2.402727 9.260277 127.019840 7.191341 3.847295 1.657463 -0.555749 1.288562 0.000002 0.000007 -0.000001 
0.294575 -3.542529 2.988141 161.055055 -5.368411 -14.760146 -0.020392 0.151679 0.260848 -0.000005 -0.000013 0.000002 -2.010281 5.654891 1.122222 -8.146256 18.370963 4.567638 -0.052399 0.004734 0.659298 -39.953673 -9.852224 -10.761066 -2.886100 -1.144018 -0.307394 0.009049 -0.204271 0.638577 13.416459 -18.120227 6.314740 -66.682433 -45.527336 -81.398991 -0.257977 -0.046400 3.241249 -51.575633 -84.330303 12.982478 0.265068 -0.075269 0.043709 0.000002 -0.000001 -0.000006 -0.000003 0.000000 0.000006 -0.000008 0.000005 -0.000011 0.268858 -0.007403 0.048435 0.000000 -0.000008 0.000000 -0.000001 0.000005 -0.000001 -0.000004 0.000007 -0.000001 0.255489 0.060161 0.039126 0.000001 -0.000003 -0.000001 -0.000001 -0.000002 -0.000005 0.000001 -0.000005 -0.000005 0.239918 0.104931 0.002066 0.000008 -0.000001 0.000004 0.000005 -0.000004 -0.000003 0.000008 -0.000009 -0.000009 0.058505 -0.041646 -0.037907 -0.000003 0.000001 -0.000003 0.000014 0.000005 0.000002 0.000009 -0.000004 -0.000011 -0.110743 -0.204000 0.629054 -22.443035 -4.750908 -0.310515 -40.475984 11.367413 77.685745 -0.057707 -0.007990 0.743069 11.435945 93.179941 -10.668603 -0.268984 -0.074059 0.001257 -0.000013 -0.000023 -0.000010 0.000006 0.000015 0.000000 0.000006 -0.000012 -0.000003 -0.273163 -0.006177 0.005347 -0.000004 -0.000033 -0.000010 -0.000001 0.000009 0.000001 -0.000001 -0.000002 -0.000000 -0.258189 0.061326 -0.001706 -0.000005 -0.000031 -0.000009 -0.000001 0.000004 0.000002 0.000003 -0.000004 0.000004 -0.236756 0.106012 -0.035827 0.000003 -0.000022 -0.000007 0.000004 0.000011 0.000005 -0.000004 -0.000013 0.000002 -0.051970 -0.041393 -0.046686 -0.000003 -0.000026 -0.000020 0.000004 -0.000008 -0.000004 -0.000011 -0.000001 0.000010 -0.315571 0.024542 0.093037 -6.949046 16.642581 -5.829302 7.008881 0.018172 0.556753 -3.228944 -2.980448 5.401661 -0.000018 -0.000008 0.000013 0.319239 -0.038526 0.242919 -147.191765 -2.341934 6.419100 115.285561 6.384471 4.307370 0.891878 -0.212305 0.501028 0.000002 0.000003 0.000000 
